<svg id="Layer_1" data-name="Layer 1" xmlns="http://www.w3.org/2000/svg" viewBox="0 0 180 180"><defs><style>.cls-1{fill:#fff;}</style></defs><path class="cls-1" d="M90,10.13A79.87,79.87,0,1,1,10.13,90,80,80,0,0,1,90,10.13m0-10A89.87,89.87,0,1,0,179.87,90,89.87,89.87,0,0,0,90,.13Z"/><path class="cls-1" d="M66.92,107.31a22.86,22.86,0,0,1-6.51-.9A12.81,12.81,0,0,1,55.59,104l1.93-5.07a11.59,11.59,0,0,0,4.08,2,18.56,18.56,0,0,0,5.34.79,7.3,7.3,0,0,0,5-1.67,5.52,5.52,0,0,0,1.89-4.35,7.32,7.32,0,0,0-.52-2.87,5,5,0,0,0-1.39-1.93,6.31,6.31,0,0,0-2.29-1.17,15.51,15.51,0,0,0-2.94-.61c-1-.1-2.21-.17-3.63-.19H61.49V83.49H63a28.87,28.87,0,0,0,4-.24,13.23,13.23,0,0,0,3.12-.83,4.54,4.54,0,0,0,2.17-1.75,5.48,5.48,0,0,0-1-6.74,6.81,6.81,0,0,0-4.83-1.61,16.28,16.28,0,0,0-9,2.53l-1.93-5.11a21.73,21.73,0,0,1,11.6-3,13.87,13.87,0,0,1,9.17,3,9.4,9.4,0,0,1,3.56,7.57,9.07,9.07,0,0,1-1.65,5.49,9.35,9.35,0,0,1-4.8,3.32A8.58,8.58,0,0,1,79,89.54a10.94,10.94,0,0,1,2,6.52,10.1,10.1,0,0,1-1.91,6.16,11.32,11.32,0,0,1-5,3.85A19.14,19.14,0,0,1,66.92,107.31Z"/><path class="cls-1" d="M84.24,111.83l16.7-45.07h5.86L90,111.83Z"/><path class="cls-1" d="M121.35,107.31a22.86,22.86,0,0,1-6.51-.9A12.88,12.88,0,0,1,110,104L112,98.91a11.74,11.74,0,0,0,4.09,2,18.46,18.46,0,0,0,5.34.79,7.26,7.26,0,0,0,5-1.67,5.5,5.5,0,0,0,1.9-4.35,7.14,7.14,0,0,0-.53-2.87,5.12,5.12,0,0,0-1.38-1.93,6.28,6.28,0,0,0-2.3-1.17,15.2,15.2,0,0,0-2.94-.61c-1-.1-2.21-.17-3.62-.19h-1.56V83.49h1.5a28.92,28.92,0,0,0,4-.24,13,13,0,0,0,3.11-.83,4.52,4.52,0,0,0,2.18-1.75,5.48,5.48,0,0,0-1-6.74,6.82,6.82,0,0,0-4.83-1.61,16.28,16.28,0,0,0-9,2.53L110,69.74a21.77,21.77,0,0,1,11.61-3,13.89,13.89,0,0,1,9.17,3,9.4,9.4,0,0,1,3.56,7.57,9.08,9.08,0,0,1-1.66,5.49,9.36,9.36,0,0,1-4.79,3.32,8.54,8.54,0,0,1,5.57,3.47,10.88,10.88,0,0,1,2,6.52,10.1,10.1,0,0,1-1.91,6.16,11.32,11.32,0,0,1-5.05,3.85A19.19,19.19,0,0,1,121.35,107.31Z"/></svg>