<svg id="Layer_1" data-name="Layer 1" xmlns="http://www.w3.org/2000/svg" viewBox="0 0 180 180"><defs><style>.cls-1{fill:#fff;}</style></defs><path class="cls-1" d="M90,10.13A79.87,79.87,0,1,1,10.13,90,80,80,0,0,1,90,10.13m0-10A89.87,89.87,0,1,0,179.87,90,89.87,89.87,0,0,0,90,.13Z"/><path class="cls-1" d="M62,106.72V74c-.25.16-1.41.67-3.48,1.54s-3.23,1.34-3.5,1.41V71.57c.43-.2,1.79-.87,4.08-2s3.55-1.81,3.79-2h5.9v39.15Z"/><path class="cls-1" d="M73.71,111.83,90.42,66.76h5.85L79.43,111.83Z"/><path class="cls-1" d="M110.83,107.31a22.86,22.86,0,0,1-6.51-.9A12.93,12.93,0,0,1,99.49,104l1.94-5.07a11.59,11.59,0,0,0,4.08,2,18.56,18.56,0,0,0,5.34.79,7.3,7.3,0,0,0,5-1.67,5.52,5.52,0,0,0,1.89-4.35,7.32,7.32,0,0,0-.52-2.87,5,5,0,0,0-1.39-1.93,6.31,6.31,0,0,0-2.29-1.17,15.51,15.51,0,0,0-2.94-.61c-1-.1-2.21-.17-3.63-.19H105.4V83.49h1.51a28.87,28.87,0,0,0,4-.24,13.23,13.23,0,0,0,3.12-.83,4.54,4.54,0,0,0,2.17-1.75,5.48,5.48,0,0,0-1-6.74,6.81,6.81,0,0,0-4.83-1.61,16.28,16.28,0,0,0-9,2.53l-1.93-5.11a21.73,21.73,0,0,1,11.6-3,13.87,13.87,0,0,1,9.17,3,9.4,9.4,0,0,1,3.56,7.57,9.07,9.07,0,0,1-1.65,5.49,9.35,9.35,0,0,1-4.8,3.32,8.58,8.58,0,0,1,5.58,3.47,10.94,10.94,0,0,1,2,6.52,10.1,10.1,0,0,1-1.91,6.16,11.32,11.32,0,0,1-5,3.85A19.14,19.14,0,0,1,110.83,107.31Z"/></svg>