<svg id="Layer_1" data-name="Layer 1" xmlns="http://www.w3.org/2000/svg" viewBox="0 0 180 180"><defs><style>.cls-1{fill:#fff;}</style></defs><path class="cls-1" d="M90,10.13A79.87,79.87,0,1,1,10.13,90,80,80,0,0,1,90,10.13m0-10A89.87,89.87,0,1,0,179.87,90,89.87,89.87,0,0,0,90,.13Z"/><path class="cls-1" d="M56.18,106.75,56,101,68.45,86.88a21,21,0,0,0,3.37-4.55,9.55,9.55,0,0,0,1.06-4.4,5.25,5.25,0,0,0-1.66-4.06,6.21,6.21,0,0,0-4.38-1.52,13.88,13.88,0,0,0-4.93.92,12.77,12.77,0,0,0-4,2.33l-2-5.32q4-3.54,11.33-3.54,5.81,0,9.33,2.91a10.06,10.06,0,0,1,3.53,8.23,13.88,13.88,0,0,1-2,7.17,38,38,0,0,1-5.46,7l-8.86,9.4H79.65l-.49,5.29Z"/><path class="cls-1" d="M83.6,111.83l16.7-45.07h5.85L89.32,111.83Z"/><path class="cls-1" d="M120.71,107.31a22.86,22.86,0,0,1-6.51-.9,12.88,12.88,0,0,1-4.82-2.43l1.93-5.07a11.77,11.77,0,0,0,4.08,2,18.58,18.58,0,0,0,5.35.79,7.26,7.26,0,0,0,5-1.67,5.52,5.52,0,0,0,1.89-4.35,7.14,7.14,0,0,0-.52-2.87,5,5,0,0,0-1.39-1.93,6.23,6.23,0,0,0-2.29-1.17,15.51,15.51,0,0,0-2.94-.61c-1-.1-2.21-.17-3.63-.19h-1.56V83.49h1.51a28.67,28.67,0,0,0,4-.24,13.23,13.23,0,0,0,3.12-.83,4.49,4.49,0,0,0,2.17-1.75,5.11,5.11,0,0,0,.74-2.84,5.18,5.18,0,0,0-1.71-3.9,6.83,6.83,0,0,0-4.84-1.61,16.3,16.3,0,0,0-9,2.53l-1.93-5.11a21.75,21.75,0,0,1,11.6-3,13.87,13.87,0,0,1,9.17,3,9.4,9.4,0,0,1,3.56,7.57A9.07,9.07,0,0,1,132,82.75a9.36,9.36,0,0,1-4.79,3.32,8.56,8.56,0,0,1,5.57,3.47,10.94,10.94,0,0,1,2,6.52,10.09,10.09,0,0,1-1.9,6.16,11.44,11.44,0,0,1-5,3.85A19.23,19.23,0,0,1,120.71,107.31Z"/></svg>